<svg width="50" height="50" viewBox="0 0 50 50" fill="none" xmlns="http://www.w3.org/2000/svg">
<path fill-rule="evenodd" clip-rule="evenodd" d="M25 50C38.8071 50 50 38.8071 50 25C50 11.1929 38.8071 0 25 0C11.1929 0 0 11.1929 0 25C0 38.8071 11.1929 50 25 50ZM32.625 17.5C32.625 21.642 29.2676 25 25.125 25C20.9824 25 17.625 21.642 17.625 17.5C17.625 13.358 20.9824 10 25.125 10C29.2676 10 32.625 13.358 32.625 17.5ZM12 37.9668C12 32.3594 16.5475 27.8125 22.1543 27.8125H28.0957C33.7031 27.8125 38.25 32.3594 38.25 37.9668C38.25 39.0918 37.3418 40 36.2203 39.9982H14.0309C12.9094 39.9982 12 39.0883 12 37.9668Z" fill="#E25530"/>
</svg>
